<svg width="718" height="924" viewBox="0 0 718 924" fill="none" xmlns="http://www.w3.org/2000/svg">
<g clip-path="url(#clip0)">
<path d="M408.861 807.75C408.861 791.227 422.255 777.833 438.778 777.833H458.722C475.245 777.833 488.639 791.227 488.639 807.75V907.472C488.639 923.994 475.245 937.389 458.722 937.389H438.778C422.255 937.389 408.861 923.994 408.861 907.472V807.75Z" fill="#751566"/>
<path d="M144.723 684.058C153.001 669.758 171.303 664.877 185.602 673.155L202.863 683.147C217.163 691.424 222.044 709.727 213.766 724.026L163.806 810.331C155.528 824.63 137.226 829.512 122.927 821.234L105.666 811.242C91.3663 802.964 86.4848 784.662 94.7625 770.362L144.723 684.058Z" fill="#751566"/>
<rect x="511.836" y="565.135" width="79.7778" height="216.7" rx="29.9167" transform="rotate(-13.75 511.836 565.135)" fill="#751566"/>
<circle cx="577.064" cy="790.248" r="9.97222" transform="rotate(14.5461 577.064 790.248)" fill="#751566"/>
<circle cx="608.519" cy="788.106" r="9.97222" transform="rotate(14.5461 608.519 788.106)" fill="#751566"/>
<circle cx="632.847" cy="773.81" r="9.97222" transform="rotate(14.5461 632.847 773.81)" fill="#751566"/>
<rect width="79.7778" height="216.7" rx="29.9167" transform="matrix(0.960846 -0.277081 -0.277081 -0.960846 147.928 276.7)" fill="#751566"/>
<circle r="9.97222" transform="matrix(0.714691 -0.699441 -0.699441 -0.714691 92.4919 48.979)" fill="#751566"/>
<circle r="9.97222" transform="matrix(0.714691 -0.699441 -0.699441 -0.714691 120.851 35.1797)" fill="#751566"/>
<circle r="9.97222" transform="matrix(0.714691 -0.699441 -0.699441 -0.714691 149.054 35.4863)" fill="#751566"/>
<path d="M154.406 517.025C162.995 473.81 204.99 445.74 248.204 454.329L502.509 504.869C545.723 513.458 573.794 555.453 565.205 598.668L536.047 745.382C527.459 788.596 485.464 816.667 442.249 808.078L187.945 757.538C144.73 748.949 116.66 706.954 125.248 663.739L154.406 517.025Z" fill="#AF2199"/>
<rect x="303.314" y="739.795" width="39.8889" height="69.8055" transform="rotate(11.2405 303.314 739.795)" fill="#AF2199"/>
<path d="M155.06 154.789C192.05 74.809 286.874 39.9589 366.854 76.9494L602.853 186.098C682.834 223.088 717.684 317.912 680.693 397.892L622.518 523.678C585.528 603.658 490.704 638.508 410.724 601.518L174.725 492.369C94.7443 455.379 59.8942 360.555 96.8847 280.575L155.06 154.789Z" fill="#369C1D"/>
<path fill-rule="evenodd" clip-rule="evenodd" d="M326.408 400.247L326.407 400.248L322.871 398.287C322.032 397.822 321.184 397.39 320.327 396.991L320.376 396.902L326.408 400.247ZM344.674 410.376L334.379 428.943C332.962 431.499 331.199 433.357 329.092 434.516C327.029 435.663 324.818 436.164 322.457 436.019C320.125 435.891 317.825 435.197 315.556 433.939C313.316 432.697 311.523 431.121 310.179 429.212C308.863 427.318 308.16 425.201 308.068 422.86C307.993 420.49 308.664 418.027 310.081 415.47L320.327 396.991C301.516 388.234 278.861 395.402 268.643 413.83C257.961 433.097 264.919 457.375 284.186 468.058L327.793 492.236C347.059 502.919 371.338 495.96 382.021 476.693C392.703 457.426 385.744 433.148 366.478 422.465L344.674 410.376ZM338.599 407.008L328.281 425.618C327.15 427.657 325.751 428.927 324.083 429.43C322.431 429.903 320.629 429.598 318.676 428.516C316.751 427.449 315.553 426.089 315.079 424.437C314.622 422.757 314.958 420.897 316.089 418.858L326.407 400.248L338.599 407.008ZM338.599 407.008L344.674 410.376L344.674 410.375L338.6 407.007L338.599 407.008ZM363.955 439.151C365.511 438.174 366.735 436.881 367.627 435.272C368.614 433.492 369.081 431.667 369.029 429.798C369.005 427.944 368.397 426.162 367.206 424.45C366.015 422.738 364.256 421.237 361.93 419.947L350.858 413.808L334.185 443.879L340.216 447.223L346.618 435.678L351.659 438.472C354.128 439.842 356.407 440.542 358.493 440.572C360.607 440.618 362.428 440.144 363.955 439.151ZM358.425 434.395C357.207 434.696 355.765 434.384 354.099 433.461L349.317 430.809L354.166 422.064L358.948 424.715C362.222 426.531 363.047 428.903 361.423 431.833C360.659 433.211 359.659 434.065 358.425 434.395Z" fill="#363636"/>
<path d="M304.265 261.176C282.551 293.032 239.124 301.254 207.268 279.541C175.412 257.827 167.19 214.4 188.904 182.544C210.617 150.688 223.152 187.788 255.008 209.502C286.864 231.215 325.979 229.32 304.265 261.176Z" fill="#F4F4F4"/>
<ellipse cx="243.773" cy="225.981" rx="39.8889" ry="34.9028" transform="rotate(34.2792 243.773 225.981)" fill="#363636"/>
<path d="M532.263 420.508C510.549 452.364 467.122 460.586 435.266 438.872C403.41 417.158 395.188 373.731 416.902 341.875C438.616 310.019 451.15 347.119 483.006 368.833C514.862 390.547 553.977 388.652 532.263 420.508Z" fill="#F4F4F4"/>
<ellipse cx="471.771" cy="385.313" rx="39.8889" ry="34.9028" transform="rotate(34.2792 471.771 385.313)" fill="#363636"/>
</g>
<defs>
<clipPath id="clip0">
<rect width="718" height="957.333" fill="white"/>
</clipPath>
</defs>
</svg>
