<svg viewBox="0 0 718 897" fill="none" xmlns="http://www.w3.org/2000/svg">
<path d="M199.445 797.777C199.445 781.255 212.839 767.861 229.362 767.861H249.306C265.829 767.861 279.223 781.255 279.223 797.778V897.5C279.223 914.022 265.829 927.416 249.306 927.416H229.362C212.839 927.416 199.445 914.022 199.445 897.5V797.777Z" fill="#751566"/>
<path d="M428.805 797.777C428.805 781.255 442.199 767.861 458.721 767.861H478.666C495.188 767.861 508.582 781.255 508.582 797.778V897.5C508.582 914.022 495.188 927.416 478.666 927.416H458.721C442.199 927.416 428.805 914.022 428.805 897.5V797.777Z" fill="#751566"/>
<rect x="488.639" y="556.37" width="79.7778" height="216.7" rx="29.9167" transform="rotate(-28.2961 488.639 556.37)" fill="#751566"/>
<circle cx="608.306" cy="757.889" r="9.97222" fill="#751566"/>
<circle cx="638.222" cy="747.917" r="9.97222" fill="#751566"/>
<circle cx="658.168" cy="727.972" r="9.97222" fill="#751566"/>
<rect width="79.7778" height="216.7" rx="29.9167" transform="matrix(-0.88051 -0.474028 -0.474028 0.88051 229.361 556.37)" fill="#751566"/>
<circle r="9.97222" transform="matrix(-1 0 0 1 109.694 757.889)" fill="#751566"/>
<circle r="9.97222" transform="matrix(-1 0 0 1 79.7778 747.917)" fill="#751566"/>
<circle r="9.97222" transform="matrix(-1 0 0 1 59.8325 727.972)" fill="#751566"/>
<path d="M149.584 568.416C149.584 524.356 185.302 488.639 229.362 488.639H488.639C532.7 488.639 568.417 524.356 568.417 568.416V718C568.417 762.06 532.7 797.778 488.64 797.778H229.362C185.302 797.778 149.584 762.06 149.584 718V568.416Z" fill="#AF2199"/>
<!-- <rect x="339.055" y="767.861" width="39.8889" height="69.8055" fill="#AF2199"/> -->
<path id="head" d="M49.8613 199.444C49.8613 111.324 121.297 39.8887 209.417 39.8887H508.583C596.703 39.8887 668.139 111.324 668.139 199.444V368.972C668.139 457.092 596.704 528.528 508.584 528.528H209.417C121.297 528.528 49.8613 457.092 49.8613 368.972V199.444Z" fill="#369C1D"/>
<path fill-rule="evenodd" clip-rule="evenodd" d="M289.195 418.833C289.195 396.803 307.054 378.944 329.084 378.944H378.945C400.975 378.944 418.834 396.803 418.834 418.833C418.834 440.863 400.975 458.722 378.945 458.722H329.084C307.054 458.722 289.195 440.863 289.195 418.833ZM329.083 378.944H349.028V398.889H329.083V378.944ZM378.944 378.944H359V398.889H378.944V378.944Z" fill="#363636"/>
<path d="M269.25 309.137C269.25 347.69 237.997 378.943 199.444 378.943C160.892 378.943 129.639 347.69 129.639 309.137C129.639 270.585 160.892 294.181 199.444 294.181C237.997 294.181 269.25 270.585 269.25 309.137Z" fill="#F4F4F4"/>
<ellipse cx="199.444" cy="314.125" rx="39.8889" ry="34.9028" fill="#363636"/>
<path d="M578.388 309.137C578.388 347.69 547.135 378.943 508.583 378.943C470.03 378.943 438.777 347.69 438.777 309.137C438.777 270.585 470.03 294.181 508.583 294.181C547.135 294.181 578.388 270.585 578.388 309.137Z" fill="#F4F4F4"/>
<ellipse cx="508.584" cy="314.125" rx="39.8889" ry="34.9028" fill="#363636"/>
</svg>
