<svg width="718" height="924" viewBox="0 0 718 924" fill="none" xmlns="http://www.w3.org/2000/svg">
<g clip-path="url(#clip0)">
<path d="M408.861 807.75C408.861 791.227 422.255 777.833 438.778 777.833H458.722C475.245 777.833 488.639 791.227 488.639 807.75V907.472C488.639 923.994 475.245 937.389 458.722 937.389H438.778C422.255 937.389 408.861 923.994 408.861 907.472V807.75Z" fill="#751566"/>
<path d="M144.723 684.058C153.001 669.758 171.303 664.877 185.602 673.155L202.863 683.147C217.163 691.424 222.044 709.727 213.766 724.026L163.806 810.331C155.528 824.63 137.226 829.512 122.927 821.234L105.666 811.242C91.3663 802.964 86.4848 784.662 94.7625 770.362L144.723 684.058Z" fill="#751566"/>
<rect x="511.836" y="565.135" width="79.7778" height="216.7" rx="29.9167" transform="rotate(-13.75 511.836 565.135)" fill="#751566"/>
<circle cx="577.064" cy="790.248" r="9.97222" transform="rotate(14.5461 577.064 790.248)" fill="#751566"/>
<circle cx="608.519" cy="788.106" r="9.97222" transform="rotate(14.5461 608.519 788.106)" fill="#751566"/>
<circle cx="632.847" cy="773.81" r="9.97222" transform="rotate(14.5461 632.847 773.81)" fill="#751566"/>
<rect width="79.7778" height="216.7" rx="29.9167" transform="matrix(0.960846 -0.277081 -0.277081 -0.960846 147.928 276.7)" fill="#751566"/>
<circle r="9.97222" transform="matrix(0.714691 -0.699441 -0.699441 -0.714691 92.4919 48.979)" fill="#751566"/>
<circle r="9.97222" transform="matrix(0.714691 -0.699441 -0.699441 -0.714691 120.851 35.1797)" fill="#751566"/>
<circle r="9.97222" transform="matrix(0.714691 -0.699441 -0.699441 -0.714691 149.054 35.4863)" fill="#751566"/>
<path d="M154.406 517.025C162.995 473.81 204.99 445.74 248.204 454.329L502.509 504.869C545.723 513.458 573.794 555.453 565.205 598.668L536.047 745.382C527.459 788.596 485.464 816.667 442.249 808.078L187.945 757.538C144.73 748.949 116.66 706.954 125.248 663.739L154.406 517.025Z" fill="#AF2199"/>
<rect x="303.314" y="739.795" width="39.8889" height="69.8055" transform="rotate(11.2405 303.314 739.795)" fill="#AF2199"/>
<path d="M155.06 154.789C192.05 74.809 286.874 39.9589 366.854 76.9494L602.853 186.098C682.834 223.088 717.684 317.912 680.693 397.892L622.518 523.678C585.528 603.658 490.704 638.508 410.724 601.518L174.725 492.369C94.7443 455.379 59.8942 360.555 96.8847 280.575L155.06 154.789Z" fill="#369C1D"/>
<path fill-rule="evenodd" clip-rule="evenodd" d="M305.795 393.315L305.783 393.338C300.43 393.039 295.094 393.828 290.099 395.611L290.1 395.611C296.677 393.067 302.984 393.179 305.795 393.315ZM340.983 408.329L327.063 433.433C324.481 438.091 321.27 441.476 317.431 443.588C313.672 445.678 309.643 446.591 305.342 446.327C301.094 446.092 296.902 444.829 292.768 442.537C288.687 440.274 285.421 437.403 282.972 433.924C280.574 430.474 279.293 426.616 279.126 422.35C278.989 418.032 285.094 404.639 290.099 395.611C281.286 398.759 273.538 405.002 268.643 413.83C257.961 433.096 264.919 457.375 284.186 468.058L327.793 492.236C347.059 502.918 371.338 495.96 382.021 476.693C392.703 457.426 385.745 433.148 366.478 422.465L340.983 408.329ZM329.915 402.193L315.952 427.375C313.892 431.091 311.343 433.406 308.304 434.321C305.295 435.183 301.882 434.967 298.324 432.994C294.818 431.05 292.762 428.235 291.9 425.225C291.066 422.163 291.679 418.774 293.739 415.059L305.783 393.338C311.599 393.663 317.435 395.273 322.871 398.287L329.915 402.193ZM329.915 402.193L340.983 408.329L340.985 408.325L329.918 402.188L329.915 402.193ZM363.23 476.41C366.064 474.629 368.294 472.274 369.919 469.343C371.717 466.099 372.569 462.774 372.473 459.369C372.43 455.992 371.323 452.745 369.152 449.626C366.982 446.507 363.778 443.772 359.539 441.422L339.367 430.237L310.353 482.565L321.342 488.658L331.642 470.082L340.825 475.174C345.325 477.669 349.476 478.944 353.277 478.999C357.13 479.083 360.447 478.22 363.23 476.41ZM353.154 467.745C350.934 468.293 348.307 467.726 345.272 466.043L336.559 461.212L345.394 445.278L354.107 450.109C360.072 453.417 361.575 457.739 358.616 463.077C357.223 465.588 355.403 467.144 353.154 467.745Z" fill="#363636"/>
<path d="M304.265 261.176C282.551 293.032 239.124 301.254 207.268 279.541C175.412 257.827 167.19 214.4 188.904 182.544C210.617 150.688 223.152 187.788 255.008 209.502C286.864 231.215 325.979 229.32 304.265 261.176Z" fill="#F4F4F4"/>
<ellipse cx="243.773" cy="225.981" rx="39.8889" ry="34.9028" transform="rotate(34.2792 243.773 225.981)" fill="#363636"/>
<path d="M532.263 420.508C510.549 452.364 467.122 460.586 435.266 438.872C403.41 417.158 395.188 373.731 416.902 341.875C438.616 310.019 451.15 347.119 483.006 368.833C514.862 390.547 553.977 388.652 532.263 420.508Z" fill="#F4F4F4"/>
<ellipse cx="471.771" cy="385.313" rx="39.8889" ry="34.9028" transform="rotate(34.2792 471.771 385.313)" fill="#363636"/>
</g>
<defs>
<clipPath id="clip0">
<rect width="718" height="957.333" fill="white"/>
</clipPath>
</defs>
</svg>
