<svg width="282" height="282" viewBox="0 0 282 282" fill="none" xmlns="http://www.w3.org/2000/svg">
<circle cx="141" cy="141" r="141" fill="#BC9C4A"/>
<path d="M60.9922 105.118C64.1007 99.26 67.7586 99.7892 74.0136 99.7425C81.4526 99.687 89.0754 98.0258 96.3531 96.517C101.087 95.5356 105.871 96.4456 110.629 95.86C112.375 95.6451 114.891 95.8854 116.363 94.9043" stroke="#3F3B3B" stroke-width="7" stroke-linecap="round" stroke-linejoin="round"/>
<path d="M162.057 101.892C167.529 99.8076 173.084 101.583 178.423 103.386C184.234 105.348 190.557 105.341 196.462 107.388C206.857 110.991 218.336 110.049 228.717 112.644" stroke="#3F3B3B" stroke-width="7" stroke-linecap="round" stroke-linejoin="round"/>
<path d="M92.7086 116.407C88.8423 117.35 89.4831 119.326 89.4831 122.769C89.4831 124.427 93.0751 125.489 94.5602 124.949C97.208 123.986 94.7691 117.482 92.171 117.482" stroke="#3F3B3B" stroke-width="7" stroke-linecap="round" stroke-linejoin="round"/>
<path d="M186.248 120.708C184.659 122.893 183.398 128.57 187.742 128.772C190.191 128.886 193.237 129.518 193.237 126.323C193.237 123.186 192.769 121.246 189.474 121.246C186.579 121.246 186.786 122.452 186.786 125.009" stroke="#3F3B3B" stroke-width="7" stroke-linecap="round" stroke-linejoin="round"/>
<path d="M152.38 105.118C152.38 109.857 152.38 114.596 152.38 119.334C152.38 125.724 154.197 131.01 155.785 137.134C158.414 147.275 161.391 157.594 164.864 167.478C165.505 169.301 169.08 175.751 167.134 177.124C165.572 178.227 162.772 177.692 160.981 177.692C156.113 177.692 151.252 178.229 146.467 178.229" stroke="#3F3B3B" stroke-width="7" stroke-linecap="round" stroke-linejoin="round"/>
<path d="M161.52 198.657C157.28 196.809 153.709 195.432 149.066 195.432C139.607 195.432 129.923 199.665 120.873 202.092C117.489 202.999 114.114 203.839 110.689 204.571C109.182 204.892 105.774 205.033 104.656 206.422C103.404 207.978 103.999 211.268 103.999 213.172" stroke="#3F3B3B" stroke-width="7" stroke-linecap="round" stroke-linejoin="round"/>
</svg>
